<?xml version="1.0" encoding="utf-8"?><!-- Uploaded to: SVG Repo, www.svgrepo.com, Generator: SVG Repo Mixer Tools -->
<svg width="800px" height="800px" viewBox="0 0 45 45" fill="none" xmlns="http://www.w3.org/2000/svg">
<path d="M32 29.6256H36V32.6256C36 33.1776 35.552 33.6256 35 33.6256H33C32.448 33.6256 32 33.1776 32 32.6256V29.6256Z" stroke="#3C3C3C" stroke-width="2"/>
<path d="M10 29.6256H14V32.6256C14 33.1776 13.552 33.6256 13 33.6256H11C10.448 33.6256 10 33.1776 10 32.6256V29.6256Z" stroke="#3C3C3C" stroke-width="2"/>
<path d="M14 19.6256H32C34.209 19.6256 36 21.4166 36 23.6256V28.6256C36 29.1776 35.552 29.6256 35 29.6256H11C10.448 29.6256 10 29.1776 10 28.6256V23.6256C10 21.4166 11.791 19.6256 14 19.6256Z" stroke="#3C3C3C" stroke-width="2"/>
<path d="M32 23.6256C32.552 23.6256 33 24.0736 33 24.6256C33 25.1776 32.552 25.6256 32 25.6256C31.448 25.6256 31 25.1776 31 24.6256C31 24.0736 31.448 23.6256 32 23.6256Z" fill="#3C3C3C"/>
<path d="M14 23.6256C14.552 23.6256 15 24.0736 15 24.6256C15 25.1776 14.552 25.6256 14 25.6256C13.448 25.6256 13 25.1776 13 24.6256C13 24.0736 13.448 23.6256 14 23.6256Z" fill="#3C3C3C"/>
<path d="M15.693 11.6256H30.307C30.724 11.6256 31.097 11.8846 31.243 12.2746L34 19.6256H12L14.757 12.2746C14.903 11.8846 15.276 11.6256 15.693 11.6256Z" stroke="#3C3C3C" stroke-width="2"/>
<path d="M9 16.6256H12V18.6256H9V16.6256Z" fill="#3C3C3C"/>
<path d="M34 16.6256H37V18.6256H34V16.6256Z" fill="#3C3C3C"/>
<path d="M17 24.6256H29" stroke="#3C3C3C" stroke-width="2"/>
</svg>