<svg xmlns="http://www.w3.org/2000/svg" width="29.255" height="27.689" xmlns:v="https://vecta.io/nano"><path d="M.57 23.513c-.033.245.044.493.21.676a.67.67 0 0 0 .191.146c.015.01.039.022.057.032a.96.96 0 0 0 .115.042c.043.014.087.024.132.029l1.226.151 2.754.35c.112-.008.219-.053.303-.128l9.873-7.791a7.53 7.53 0 0 0 .953.353 7.29 7.29 0 0 0 1.797.297 7.46 7.46 0 0 0 6.762-3.714c1.4-2.405 1.377-5.382-.06-7.765l-.453-.666c-2.086-2.76-5.799-3.717-8.959-2.309-3.166 1.429-4.953 4.828-4.337 8.246l-.982.774c-.057.047-.093.116-.097.19l-.068 2.198c-.003.066-.031.127-.079.173-.059.059-.144.085-.226.067l-.96-.211-.987-.222c-.073-.015-.149.003-.208.049s-.094.115-.098.189l-.059 2.008c-.003.066-.031.127-.079.173a.24.24 0 0 1-.223.081l-.96-.211-.987-.222c-.073-.015-.149.003-.208.049s-.094.115-.098.189l-.065 2.02c-.002.066-.03.128-.079.173a.24.24 0 0 1-.221.063l-1.148-.251-.994-.211a.24.24 0 0 0-.208.049l-.92.748a.42.42 0 0 0-.148.272zM19.624 6.679a1.99 1.99 0 0 1 2.8.344c.014.016.026.034.035.054.042.05.078.104.108.162a.96.96 0 0 1 .086.168.99.99 0 0 1 .073.179c.025.066.046.134.062.203a.99.99 0 0 1 .033.165 2.02 2.02 0 0 1-.736 1.894c-.567.449-1.334.551-1.999.267-.051-.019-.101-.042-.148-.069a1.6 1.6 0 0 1-.18-.11c-.055-.033-.107-.071-.154-.115a.95.95 0 0 1-.141-.125.87.87 0 0 1-.13-.145c-.017-.013-.031-.029-.044-.047a2.03 2.03 0 0 1 .336-2.827zm0 0" fill="#fec108"/><path d="M1.783 23.664c-.033.245.044.491.21.674.054.061.119.111.191.148l.058.031a.96.96 0 0 0 .114.043.74.74 0 0 0 .132.029l.012.001 2.754.348c.112-.008.219-.053.303-.128l9.873-7.791a7.53 7.53 0 0 0 .953.353l.261-.204a7.47 7.47 0 0 0 1.536.501 7.46 7.46 0 0 0 6.762-3.714c1.4-2.405 1.377-5.382-.06-7.765l-.453-.666c-1.09-1.439-2.666-2.433-4.434-2.795a7.44 7.44 0 0 0-5.931 2.591 7.6 7.6 0 0 0-1.717 6.292l-.982.774c-.057.047-.093.116-.097.19l-.068 2.198c-.003.074-.039.143-.097.19a.25.25 0 0 1-.208.049l-.987-.222-.96-.211c-.073-.015-.149.004-.208.05a.26.26 0 0 0-.098.189l-.059 2.008c-.003.074-.039.143-.097.19a.25.25 0 0 1-.208.049l-.987-.222-.96-.211c-.073-.015-.149.004-.208.05a.26.26 0 0 0-.098.189l-.065 2.02a.25.25 0 0 1-.096.19c-.058.046-.135.063-.207.047l-.992-.215-1.143-.234a.24.24 0 0 0-.208.049l-.018.014-.902.735a.42.42 0 0 0-.148.272zM19.624 6.679a1.97 1.97 0 0 1 2.066-.237c.711-.14.117-.048.592.567.014.016.026.034.035.054.042.05.078.104.108.162a.96.96 0 0 1 .086.168.99.99 0 0 1 .073.179c.025.066.046.134.062.203a.99.99 0 0 1 .035.161c.115.718-.167 1.443-.736 1.895-.591.465 0 .705-.644.435a.4.4 0 0 1-.062-.029 1.95 1.95 0 0 1-1.152-.122c-.051-.019-.101-.042-.148-.069a1.6 1.6 0 0 1-.18-.11c-.055-.033-.107-.071-.154-.115a.95.95 0 0 1-.141-.125.87.87 0 0 1-.13-.145c-.017-.013-.031-.029-.044-.047a2.03 2.03 0 0 1 .334-2.827zm0 0" fill="#f7c721"/><path d="M19.46 2.223q.218.027.435.067a7.82 7.82 0 0 1 5.335 3.689 8.03 8.03 0 0 1-.734 9.325 7.84 7.84 0 0 1-9.004 2.193l-9.681 7.638c-.157.133-.353.208-.558.216-.017-.002-.041-.01-.051-.006l-3.969-.495a1.25 1.25 0 0 1-.819-.468c-.202-.261-.291-.593-.247-.92l.468-3.906a.83.83 0 0 1 .297-.543l.921-.748a.65.65 0 0 1 .544-.135l1.953.424.059-1.828c.006-.196.098-.38.252-.502a.65.65 0 0 1 .543-.126l1.766.386.056-1.824c.006-.196.098-.38.252-.502a.65.65 0 0 1 .543-.126l1.766.386.061-2.008c.005-.197.098-.381.252-.503l.791-.624a8.02 8.02 0 0 1 2.161-6.728 7.84 7.84 0 0 1 6.606-2.331zm-1.814 15.001a7.06 7.06 0 0 0 7.255-4.059 7.2 7.2 0 0 0-1.543-8.228 7.02 7.02 0 0 0-8.223-1.09 7.17 7.17 0 0 0-3.598 7.548c.027.15-.03.302-.149.397l-.923.728-.065 2.125c-.006.196-.098.38-.252.502a.65.65 0 0 1-.543.126l-1.766-.386-.061 1.823c-.006.196-.098.38-.252.502a.65.65 0 0 1-.543.126l-1.766-.386-.059 1.828c-.006.196-.098.38-.252.502a.65.65 0 0 1-.542.126l-2.061-.447-.86.7-.468 3.909a.41.41 0 0 0 .08.312c.068.089.166.14.273.152l3.927.49a.54.54 0 0 0 .056-.038l9.869-7.783a.4.4 0 0 1 .417-.05 7.1 7.1 0 0 0 2.051.572zM21.15 5.861a2.43 2.43 0 0 1 .343 4.743c-1.108.307-2.278-.217-2.786-1.249a2.44 2.44 0 0 1 .671-3.002 2.38 2.38 0 0 1 1.772-.493zm-.491 3.996c.754.091 1.468-.365 1.7-1.089a1.61 1.61 0 0 0-.729-1.896c-.659-.376-1.492-.229-1.982.35a1.62 1.62 0 0 0-.048 2.032 1.58 1.58 0 0 0 1.059.603zm-6.694 5.393a.41.41 0 0 1 .343.299c.044.16-.012.331-.142.434l-7.074 5.582a.4.4 0 0 1-.411.061c-.137-.056-.233-.181-.253-.328s.041-.293.158-.383l7.075-5.58a.4.4 0 0 1 .304-.085zm-8.708 6.802a.41.41 0 0 0 .567.443.41.41 0 0 0 .242-.343.41.41 0 0 0-.568-.443.41.41 0 0 0-.241.343zm0 0" fill="#002f57"/><path d="M20.951 8.381L28.548.708" fill="none" stroke="#0d2e56" stroke-linecap="round"/></svg>