<?xml version="1.0" encoding="UTF-8"?>
<svg version="1.1" xmlns="http://www.w3.org/2000/svg" width="1080" height="194">
<path d="M0 0 C0.98484375 -0.00128906 1.9696875 -0.00257812 2.984375 -0.00390625 C4.02078125 -0.00003906 5.0571875 0.00382813 6.125 0.0078125 C7.67960937 0.00201172 7.67960937 0.00201172 9.265625 -0.00390625 C10.25046875 -0.00261719 11.2353125 -0.00132813 12.25 0 C13.16007812 0.00112793 14.07015625 0.00225586 15.0078125 0.00341797 C17.125 0.1328125 17.125 0.1328125 18.125 1.1328125 C18.28510481 3.86982428 18.38446828 6.5844884 18.44140625 9.32421875 C18.46218735 10.14405746 18.48296844 10.96389618 18.50437927 11.80857849 C18.56996494 14.43740151 18.62880126 17.06632754 18.6875 19.6953125 C18.73067667 21.47331811 18.77429067 23.25131315 18.81835938 25.02929688 C18.92565543 29.39702884 19.02689704 33.76486477 19.125 38.1328125 C20.06859375 37.17181641 20.06859375 37.17181641 21.03125 36.19140625 C25.61220764 31.56215538 30.2353442 27.08816046 35.17773438 22.84863281 C38.72638849 19.72175955 42.04132429 16.36050157 45.375 13.0078125 C46.41527344 11.97333984 46.41527344 11.97333984 47.4765625 10.91796875 C50.91795987 7.46997866 54.18337457 4.02970804 57.125 0.1328125 C61.83420718 1.01026536 64.32609132 3.91991063 67.58666992 7.22216797 C68.54609497 8.17611702 68.54609497 8.17611702 69.52490234 9.14933777 C71.64256741 11.25888352 73.74915812 13.37912161 75.85546875 15.5 C77.32983647 16.97488663 78.80472328 18.44925452 80.28010559 19.92312622 C83.37744044 23.02055088 86.46953519 26.12308577 89.55786133 29.22949219 C93.49205382 33.18622295 97.43705887 37.13194891 101.38592052 41.07403374 C104.43804823 44.12279535 107.48511753 47.17657264 110.53066444 50.23190689 C111.98162298 51.68668363 113.4338949 53.14015178 114.88756371 54.59222031 C122.08510143 61.78843422 129.10491508 68.94867472 135.407547 76.9548645 C137.67496751 79.83024098 140.11467357 82.46752764 142.625 85.1328125 C146.07974614 88.8384182 149.3904048 92.61809986 152.5625 96.5703125 C155.92852329 100.75526095 159.45737981 104.71531049 163.125 108.6328125 C192.125 139.69182165 192.125 139.69182165 192.125 149.1328125 C187.20394401 148.57428774 183.2345986 147.0010003 178.875 144.7578125 C178.18970215 144.408396 177.5044043 144.05897949 176.79833984 143.69897461 C162.72184647 136.38776774 149.40425639 128.61070663 138.95933533 116.46643066 C135.30925556 112.28741752 131.47022077 108.34330212 127.53735352 104.43164062 C126.81456711 103.70870819 126.0917807 102.98577576 125.34709167 102.24093628 C122.98506209 99.8795969 120.61952287 97.52180785 118.25390625 95.1640625 C116.60459367 93.51661728 114.95550343 91.86894944 113.30662537 90.22106934 C108.98688328 85.90512743 104.66414547 81.59219833 100.34075928 77.27990723 C95.92130959 72.87072564 91.50472402 68.45867714 87.08789062 64.046875 C78.43638144 55.40605901 69.78170212 46.76842579 61.125 38.1328125 C58.00707773 39.6190569 55.92715378 41.11188057 53.5234375 43.609375 C52.86859375 44.2796875 52.21375 44.95 51.5390625 45.640625 C50.86617187 46.33929688 50.19328125 47.03796875 49.5 47.7578125 C48.15830089 49.15033355 46.81216735 50.53860017 45.4609375 51.921875 C44.86845215 52.53756348 44.2759668 53.15325195 43.66552734 53.78759766 C42.125 55.1328125 42.125 55.1328125 40.125 55.1328125 C39.85437744 55.73319336 39.58375488 56.33357422 39.30493164 56.95214844 C38.13201876 59.11984095 37.0552765 60.37753013 35.24609375 62.0234375 C34.66287354 62.5601709 34.07965332 63.0969043 33.47875977 63.64990234 C32.84639404 64.2217627 32.21402832 64.79362305 31.5625 65.3828125 C30.20530605 66.62974796 28.84855271 67.87716313 27.4921875 69.125 C26.42436035 70.10291504 26.42436035 70.10291504 25.33496094 71.10058594 C21.5928852 74.54170817 17.89016784 78.02440051 14.1875 81.5078125 C13.50292725 82.14879883 12.81835449 82.78978516 12.11303711 83.45019531 C7.98694483 87.32687268 3.95064716 91.27704044 -0.02392578 95.30908203 C-2.52722794 97.77540584 -5.15841979 100.07144657 -7.82421875 102.359375 C-9.21810666 103.56475616 -10.59532977 104.78962351 -11.95703125 106.03125 C-16.96774629 110.59957759 -22.20345962 114.70283949 -27.65625 118.73046875 C-31.01034903 121.21631537 -34.28883139 123.79241705 -37.5625 126.3828125 C-42.79468609 130.51786841 -48.07037227 134.59113459 -53.375 138.6328125 C-58.63165246 142.64018423 -63.86836543 146.66967291 -69.0625 150.7578125 C-69.90699707 151.42139771 -69.90699707 151.42139771 -70.76855469 152.09838867 C-73.6930501 154.40035549 -76.60471369 156.71702031 -79.50390625 159.05078125 C-97.07051575 173.1328125 -97.07051575 173.1328125 -102.875 173.1328125 C-98.95998707 162.40061288 -91.2315531 153.92076075 -83.45800781 145.79248047 C-80.48871693 142.67939604 -77.56036377 139.52784511 -74.625 136.3828125 C-73.71500244 135.41057739 -73.71500244 135.41057739 -72.78662109 134.41870117 C-69.39631124 130.79049944 -66.08097423 127.11731314 -62.84375 123.3515625 C-59.91707432 120.05324546 -56.89129709 116.84907646 -53.875 113.6328125 C-49.67219608 109.14993106 -45.50661386 104.65353901 -41.4921875 100 C-38.01689306 95.98746198 -34.44337337 92.06246978 -30.875 88.1328125 C-30.41963867 87.63088379 -29.96427734 87.12895508 -29.49511719 86.61181641 C-28.02118199 84.99048769 -26.54245119 83.37365034 -25.0625 81.7578125 C-24.62591064 81.27739502 -24.18932129 80.79697754 -23.73950195 80.30200195 C-23.282771 79.80531006 -22.82604004 79.30861816 -22.35546875 78.796875 C-21.8555542 78.22267822 -21.35563965 77.64848145 -20.84057617 77.05688477 C-18.875 75.1328125 -18.875 75.1328125 -15.85668945 73.15991211 C-10.84515346 69.6204769 -7.50210829 66.13271367 -6.21426392 59.9720459 C-5.28216705 51.21008283 -5.44952507 42.42254798 -5.64575195 33.62628174 C-5.71563179 29.97567344 -5.72252318 26.32501179 -5.73242188 22.67382812 C-5.7446053 18.57883696 -5.76770345 14.48577753 -5.83296204 10.39118958 C-5.85174911 9.18871078 -5.87053619 7.98623199 -5.88989258 6.74731445 C-5.91054276 5.68430618 -5.93119293 4.62129791 -5.95246887 3.52607727 C-5.81334773 -0.77182612 -3.77923822 0.0046839 0 0 Z " fill="#1DD812" transform="translate(122.875,12.8671875)"/>
<path d="M0 0 C0.64839844 0.40089844 1.29679688 0.80179687 1.96484375 1.21484375 C7.92972667 5.56555116 10.69321131 12.26909413 12.6171875 19.234375 C14.45856498 32.53738782 14.23596744 46.71528234 6.50390625 58.1171875 C0.84693015 65.19942771 -5.44892001 69.22546009 -14.53369141 70.29956055 C-17.17632984 70.4364551 -19.79157349 70.46756461 -22.4375 70.4375 C-23.36183838 70.43065186 -24.28617676 70.42380371 -25.23852539 70.41674805 C-34.79740694 70.1911074 -42.21927938 68.09610297 -49 61 C-57.08744403 49.44329029 -57.54403159 35.27746029 -55.5 21.671875 C-52.98800123 11.45260726 -47.81913351 4.43588079 -39.06640625 -1.2578125 C-28.42874597 -6.68093343 -10.09104522 -6.50311803 0 0 Z M-36.3125 15.625 C-41.19478706 25.38957411 -41.09326158 36.68336781 -38 47 C-35.3970666 51.61810764 -33.10123079 55.29958974 -28 57 C-19.1095122 57.9182412 -19.1095122 57.9182412 -10.9375 55 C-5.94668457 50.62839244 -3.52136198 44.51702479 -3 38 C-2.44245549 27.51456621 -3.51842157 19.35863098 -10.5625 11.1875 C-18.27701671 4.81463837 -30.52422737 9.05452837 -36.3125 15.625 Z " fill="#003159" transform="translate(728,91)"/>
<path d="M0 0 C1.27875 0.00257812 2.5575 0.00515625 3.875 0.0078125 C5.15375 0.00523438 6.4325 0.00265625 7.75 0 C10.875 0.1328125 10.875 0.1328125 11.875 1.1328125 C11.96267112 3.20543326 11.98195873 5.28101544 11.97265625 7.35546875 C11.96943359 8.61552734 11.96621094 9.87558594 11.96289062 11.17382812 C11.95453403 12.51432359 11.94606907 13.85481838 11.9375 15.1953125 C11.9324866 16.53971192 11.92792342 17.8841131 11.92382812 19.22851562 C11.91199497 22.52996683 11.89405886 25.8313951 11.875 29.1328125 C20.455 29.1328125 29.035 29.1328125 37.875 29.1328125 C37.86339844 27.12316406 37.85179687 25.11351562 37.83984375 23.04296875 C37.8328926 21.10359826 37.82597604 19.16422747 37.82006836 17.22485352 C37.81502943 15.87360864 37.80819823 14.52236924 37.79956055 13.17114258 C37.78747581 11.23260816 37.78230172 9.2940345 37.77734375 7.35546875 C37.77210693 6.18765869 37.76687012 5.01984863 37.76147461 3.81665039 C37.875 1.1328125 37.875 1.1328125 38.875 0.1328125 C41.22813555 0.06009509 43.58333668 0.04910382 45.9375 0.0703125 C47.22785156 0.07933594 48.51820313 0.08835937 49.84765625 0.09765625 C50.84667969 0.10925781 51.84570312 0.12085937 52.875 0.1328125 C54.29818609 2.97918468 54.00228042 5.38812238 54.00439453 8.5703125 C54.00614685 9.23063477 54.00789917 9.89095703 54.00970459 10.57128906 C54.01411325 12.75849011 54.01118859 14.9456106 54.0078125 17.1328125 C54.00848582 18.64973974 54.00945609 20.16666688 54.01071167 21.68359375 C54.0121873 24.86459377 54.01003839 28.04556574 54.00537109 31.2265625 C53.99967388 35.30902337 54.0029536 39.3914185 54.00894356 43.47387695 C54.01255279 46.60677589 54.01140891 49.73965919 54.00881577 52.87255859 C54.0081475 54.37809253 54.00897143 55.88362787 54.01129532 57.38916016 C54.01382775 59.49124936 54.00997289 61.59323131 54.00439453 63.6953125 C54.00359894 64.89285156 54.00280334 66.09039062 54.00198364 67.32421875 C53.875 70.1328125 53.875 70.1328125 52.875 72.1328125 C46.54390826 73.44269355 44.62035962 73.0600581 37.875 71.1328125 C37.875 61.5628125 37.875 51.9928125 37.875 42.1328125 C29.295 42.1328125 20.715 42.1328125 11.875 42.1328125 C11.875 51.7028125 11.875 61.2728125 11.875 71.1328125 C5.09114406 73.07105705 3.23729561 73.33945477 -3.125 72.1328125 C-4.99485821 70.26295429 -4.25279348 67.10133629 -4.25439453 64.609375 C-4.25614685 63.92808533 -4.25789917 63.24679565 -4.25970459 62.54486084 C-4.26412242 60.28248583 -4.26118538 58.02018837 -4.2578125 55.7578125 C-4.25848556 54.1922199 -4.2594556 52.6266274 -4.26071167 51.06103516 C-4.26218855 47.77570605 -4.26003441 44.49040408 -4.25537109 41.20507812 C-4.2496738 36.98460734 -4.25295286 32.76420014 -4.25894356 28.54373169 C-4.26254944 25.30964678 -4.26141046 22.07557705 -4.25881577 18.8414917 C-4.25814657 17.28489169 -4.25897466 15.72829032 -4.26129532 14.17169189 C-4.2638223 11.99984054 -4.25998065 9.82809354 -4.25439453 7.65625 C-4.25359894 6.41794434 -4.25280334 5.17963867 -4.25198364 3.90380859 C-4.07210075 -0.02153779 -3.9787135 0.16909532 0 0 Z " fill="#003159" transform="translate(607.125,87.8671875)"/>
<path d="M0 0 C1.27875 0.00257812 2.5575 0.00515625 3.875 0.0078125 C5.15375 0.00523438 6.4325 0.00265625 7.75 0 C10.875 0.1328125 10.875 0.1328125 11.875 1.1328125 C11.96267112 3.20543326 11.98195873 5.28101544 11.97265625 7.35546875 C11.96943359 8.61552734 11.96621094 9.87558594 11.96289062 11.17382812 C11.95453403 12.51432359 11.94606907 13.85481838 11.9375 15.1953125 C11.9324866 16.53971192 11.92792342 17.8841131 11.92382812 19.22851562 C11.91199497 22.52996683 11.89405886 25.8313951 11.875 29.1328125 C20.455 29.1328125 29.035 29.1328125 37.875 29.1328125 C37.86339844 27.12316406 37.85179687 25.11351562 37.83984375 23.04296875 C37.8328926 21.10359826 37.82597604 19.16422747 37.82006836 17.22485352 C37.81502943 15.87360864 37.80819823 14.52236924 37.79956055 13.17114258 C37.78747581 11.23260816 37.78230172 9.2940345 37.77734375 7.35546875 C37.77210693 6.18765869 37.76687012 5.01984863 37.76147461 3.81665039 C37.875 1.1328125 37.875 1.1328125 38.875 0.1328125 C41.22813555 0.06009509 43.58333668 0.04910382 45.9375 0.0703125 C47.22785156 0.07933594 48.51820313 0.08835937 49.84765625 0.09765625 C50.84667969 0.10925781 51.84570312 0.12085937 52.875 0.1328125 C54.29818609 2.97918468 54.00228042 5.38812238 54.00439453 8.5703125 C54.00614685 9.23063477 54.00789917 9.89095703 54.00970459 10.57128906 C54.01411325 12.75849011 54.01118859 14.9456106 54.0078125 17.1328125 C54.00848582 18.64973974 54.00945609 20.16666688 54.01071167 21.68359375 C54.0121873 24.86459377 54.01003839 28.04556574 54.00537109 31.2265625 C53.99967388 35.30902337 54.0029536 39.3914185 54.00894356 43.47387695 C54.01255279 46.60677589 54.01140891 49.73965919 54.00881577 52.87255859 C54.0081475 54.37809253 54.00897143 55.88362787 54.01129532 57.38916016 C54.01382775 59.49124936 54.00997289 61.59323131 54.00439453 63.6953125 C54.00359894 64.89285156 54.00280334 66.09039062 54.00198364 67.32421875 C53.875 70.1328125 53.875 70.1328125 52.875 72.1328125 C46.54390826 73.44269355 44.62035962 73.0600581 37.875 71.1328125 C37.875 61.5628125 37.875 51.9928125 37.875 42.1328125 C29.295 42.1328125 20.715 42.1328125 11.875 42.1328125 C11.875 51.7028125 11.875 61.2728125 11.875 71.1328125 C5.09114406 73.07105705 3.23729561 73.33945477 -3.125 72.1328125 C-4.99485821 70.26295429 -4.25279348 67.10133629 -4.25439453 64.609375 C-4.25614685 63.92808533 -4.25789917 63.24679565 -4.25970459 62.54486084 C-4.26412242 60.28248583 -4.26118538 58.02018837 -4.2578125 55.7578125 C-4.25848556 54.1922199 -4.2594556 52.6266274 -4.26071167 51.06103516 C-4.26218855 47.77570605 -4.26003441 44.49040408 -4.25537109 41.20507812 C-4.2496738 36.98460734 -4.25295286 32.76420014 -4.25894356 28.54373169 C-4.26254944 25.30964678 -4.26141046 22.07557705 -4.25881577 18.8414917 C-4.25814657 17.28489169 -4.25897466 15.72829032 -4.26129532 14.17169189 C-4.2638223 11.99984054 -4.25998065 9.82809354 -4.25439453 7.65625 C-4.25359894 6.41794434 -4.25280334 5.17963867 -4.25198364 3.90380859 C-4.07210075 -0.02153779 -3.9787135 0.16909532 0 0 Z " fill="#003159" transform="translate(396.125,87.8671875)"/>
<path d="M0 0 C6.27 0 12.54 0 19 0 C22.33080674 7.82799444 25.38617392 15.66661514 28.13671875 23.71484375 C28.50223343 24.77361221 28.86774811 25.83238068 29.24433899 26.92323303 C30.3956612 30.26009413 31.54184616 33.59868902 32.6875 36.9375 C33.84478723 40.3009789 35.00316841 43.66407594 36.16279602 47.02674866 C36.88000765 49.10745809 37.59572413 51.18868367 38.30973816 53.27049255 C38.63380142 54.21239944 38.95786469 55.15430634 39.29174805 56.12475586 C39.71546944 57.35952919 39.71546944 57.35952919 40.14775085 58.61924744 C40.74846784 60.29734652 41.40449986 61.95614419 42.09895325 63.59767151 C43.18953156 66.50532013 43.14324744 68.92018013 43 72 C37.31302429 72.91397824 32.68697571 72.91397824 27 72 C25.35 67.38 23.7 62.76 22 58 C13.09 57.67 4.18 57.34 -5 57 C-5.66 59.97 -6.32 62.94 -7 66 C-8.125 69.5 -8.125 69.5 -10 72 C-15.01402568 73.23295713 -18.9347059 73.13969117 -24 72 C-23.45165335 64.733718 -21.29149836 58.35475418 -18.88671875 51.50390625 C-18.47589554 50.31578842 -18.06507233 49.12767059 -17.64179993 47.90354919 C-16.77377748 45.3984271 -15.90287684 42.89455916 -15.02661133 40.39233398 C-13.91247696 37.21034023 -12.80873203 34.02486871 -11.70859051 30.83801365 C-10.64740046 27.76676882 -9.57945219 24.69788122 -8.51171875 21.62890625 C-7.92398933 19.93164146 -7.92398933 19.93164146 -7.3243866 18.2000885 C-5.14569447 11.98748429 -2.7663438 5.97494093 0 0 Z M8 16 C6.71443334 19.80731355 5.43278817 23.61592191 4.15478516 27.42578125 C3.71934244 28.72204323 3.28282408 30.01794438 2.84521484 31.31347656 C2.21690673 33.17418041 1.59276741 35.03629031 0.96875 36.8984375 C0.59169922 38.01911621 0.21464844 39.13979492 -0.17382812 40.29443359 C-1.09734917 42.84731869 -1.09734917 42.84731869 -1 45 C5.27 45 11.54 45 18 45 C16.42482561 37.71897335 16.42482561 37.71897335 14.2734375 30.74609375 C13.9640625 29.87275391 13.6546875 28.99941406 13.3359375 28.09960938 C13.01882813 27.22111328 12.70171875 26.34261719 12.375 25.4375 C12.05015625 24.52419922 11.7253125 23.61089844 11.390625 22.66992188 C10.59846371 20.44488059 9.8015341 18.22167825 9 16 C8.67 16 8.34 16 8 16 Z " fill="#003159" transform="translate(805,88)"/>
<path d="M0 0 C2.07358419 3.11037628 2.29487123 3.99561252 2.3125 7.5625 C2.32925781 8.34753906 2.34601563 9.13257812 2.36328125 9.94140625 C2.24339844 10.62074219 2.12351562 11.30007812 2 12 C1.01 12.66 0.02 13.32 -1 14 C-2.91015625 13.3203125 -2.91015625 13.3203125 -5.0625 12.125 C-10.07076353 9.71906948 -14.5013669 9.03429024 -20 10 C-22.8213337 11.40087749 -22.8213337 11.40087749 -24 14 C-24.48243075 17.03189266 -24.48243075 17.03189266 -23 20 C-19.69762501 23.01071224 -15.52682927 24.74845089 -11.53125 26.65625 C-10.91918701 26.95088135 -10.30712402 27.2455127 -9.67651367 27.54907227 C-7.88283875 28.40397509 -6.07636789 29.23187136 -4.26953125 30.05859375 C0.90553713 33.13148381 4.28201339 37.11378358 6 43 C7.15883919 50.941098 5.68985976 57.47190374 1 64 C-5.14715573 70.08997289 -12.44779817 71.39158105 -20.8125 71.375 C-21.60986572 71.37411377 -22.40723145 71.37322754 -23.22875977 71.37231445 C-30.08713065 71.23420763 -35.22380628 69.89680615 -40.7109375 65.6875 C-42.50207731 63.34273515 -42.30089665 61.72301399 -42.1875 58.8125 C-42.16042969 57.91144531 -42.13335937 57.01039063 -42.10546875 56.08203125 C-42.07066406 55.39496094 -42.03585937 54.70789063 -42 54 C-39.41663522 52.99998783 -37.6633096 52.71437077 -35.0859375 53.82421875 C-34.37695312 54.19160156 -33.66796875 54.55898437 -32.9375 54.9375 C-26.41489319 58.11125163 -18.91805628 58.02118984 -12 56 C-11.7525 54.7625 -11.505 53.525 -11.25 52.25 C-11.11078125 51.55390625 -10.9715625 50.8578125 -10.828125 50.140625 C-10.82494339 47.89060987 -10.82494339 47.89060987 -12.3984375 46.03125 C-16.79415595 42.59915752 -21.87889572 40.41740877 -26.9140625 38.0625 C-32.8259442 35.12514997 -36.79266085 31.85357661 -40 26 C-42.24354706 18.93119603 -41.21853148 12.50703103 -38 6 C-35.48519594 1.74417775 -32.46157417 -0.4343069 -27.9609375 -2.2734375 C-19.08123767 -4.4523612 -8.10362716 -4.46526395 0 0 Z " fill="#003159" transform="translate(376,90)"/>
<path d="M0 0 C2.43816585 -0.0809723 4.87364384 -0.14046972 7.3125 -0.1875 C8.34793945 -0.22520508 8.34793945 -0.22520508 9.40429688 -0.26367188 C14.51814103 -0.33778556 14.51814103 -0.33778556 16.5546875 1.08984375 C18.61311589 3.81030721 19.54870149 6.64755591 20.69921875 9.85546875 C20.9391304 10.51710526 21.17904205 11.17874176 21.42622375 11.86042786 C22.18791632 13.96669165 22.93782874 16.07693144 23.6875 18.1875 C24.20300375 19.61941889 24.71927124 21.05106308 25.23632812 22.48242188 C26.49975128 25.98514133 27.75264637 29.49152119 29 33 C29.52956299 31.6070874 29.52956299 31.6070874 30.06982422 30.18603516 C31.38017075 26.74368737 32.69755458 23.30406922 34.01708984 19.86523438 C34.58737658 18.37606218 35.15574812 16.8861551 35.72216797 15.39550781 C36.53632117 13.25389992 37.35730902 11.11502311 38.1796875 8.9765625 C38.43185028 8.30879791 38.68401306 7.64103333 38.94381714 6.95303345 C40.03309502 4.13798047 40.84060279 2.15939721 43 0 C45.58064129 -0.14497985 48.04943884 -0.18677545 50.625 -0.125 C51.33140625 -0.11597656 52.0378125 -0.10695313 52.765625 -0.09765625 C54.51056098 -0.07407603 56.25532295 -0.03820461 58 0 C59.20516687 2.41033374 59.12686106 3.9258141 59.12939453 6.61743164 C59.13254669 7.57504898 59.13569885 8.53266632 59.13894653 9.51930237 C59.1369223 10.55578415 59.13489807 11.59226593 59.1328125 12.66015625 C59.13376923 13.72036484 59.13472595 14.78057343 59.13571167 15.87290955 C59.13639295 18.11652689 59.13454227 20.3601462 59.13037109 22.60375977 C59.12501686 26.05163972 59.13032058 29.49938971 59.13671875 32.94726562 C59.13605806 35.12239612 59.1347771 37.29752654 59.1328125 39.47265625 C59.13483673 40.51116226 59.13686096 41.54966827 59.13894653 42.61964417 C59.13421829 44.05134193 59.13421829 44.05134193 59.12939453 45.51196289 C59.12859894 46.35642471 59.12780334 47.20088654 59.12698364 48.07093811 C59 50 59 50 58 51 C56.50261876 51.0979057 55.00057108 51.12974864 53.5 51.125 C52.6853125 51.12757813 51.870625 51.13015625 51.03125 51.1328125 C49 51 49 51 48 50 C47.84003834 47.40846893 47.74061303 44.8404798 47.68359375 42.24609375 C47.66281265 41.47064713 47.64203156 40.6952005 47.62062073 39.89625549 C47.55504198 37.41009692 47.49620201 34.92382955 47.4375 32.4375 C47.39432267 30.75584796 47.35070864 29.07420706 47.30664062 27.39257812 C47.19935221 23.26183129 47.09810868 19.13097464 47 15 C46.64172119 16.0194873 46.28344238 17.03897461 45.91430664 18.08935547 C44.58685317 21.86553772 43.2576786 25.64111223 41.92797852 29.41650391 C41.35231178 31.05175469 40.77711425 32.68717073 40.20239258 34.32275391 C39.37704288 36.6713331 38.55001711 39.01931617 37.72265625 41.3671875 C37.46533218 42.10057343 37.20800812 42.83395935 36.94288635 43.58956909 C35.11387171 48.77225659 35.11387171 48.77225659 34 51 C30.7 51 27.4 51 24 51 C20.56619376 43.63621827 17.86273334 36.12676571 15.25 28.4375 C14.83878906 27.23802734 14.42757812 26.03855469 14.00390625 24.80273438 C12.99896617 21.86971158 11.99776006 18.93547141 11 16 C10.97494385 17.02472412 10.9498877 18.04944824 10.92407227 19.10522461 C10.83015516 22.89409676 10.72989683 26.68277881 10.62768555 30.47143555 C10.58427703 32.11364303 10.54260642 33.75589739 10.50268555 35.39819336 C10.4451256 37.75388745 10.38139108 40.10934428 10.31640625 42.46484375 C10.29133751 43.57266457 10.29133751 43.57266457 10.26576233 44.7028656 C10.11387171 49.88612829 10.11387171 49.88612829 9 51 C7.31391034 51.07205511 5.62499341 51.08386068 3.9375 51.0625 C3.01839844 51.05347656 2.09929688 51.04445312 1.15234375 51.03515625 C0.44207031 51.02355469 -0.26820313 51.01195312 -1 51 C-1.02529373 44.05827612 -1.04284304 37.11656406 -1.05493164 30.17480469 C-1.05996959 27.81184444 -1.06680008 25.44888732 -1.07543945 23.0859375 C-1.08752854 19.69530465 -1.09323359 16.30471291 -1.09765625 12.9140625 C-1.10281754 11.85256989 -1.10797882 10.79107727 -1.11329651 9.69741821 C-1.11337204 8.71655243 -1.11344757 7.73568665 -1.11352539 6.72509766 C-1.115746 5.85905914 -1.11796661 4.99302063 -1.12025452 4.10073853 C-1 2 -1 2 0 0 Z " fill="#003159" transform="translate(982,109)"/>
<path d="M0 0 C2.9795099 -0.26653946 5.7488582 -0.34767784 8.7265625 -0.29296875 C9.58937836 -0.28872391 10.45219421 -0.28447906 11.34115601 -0.28010559 C14.10275197 -0.26328392 16.86362383 -0.22562598 19.625 -0.1875 C21.49478114 -0.17245764 23.3645737 -0.15876846 25.234375 -0.14648438 C29.82319658 -0.11336906 34.41147544 -0.06156339 39 0 C40.5635348 3.12706959 40.39958487 6.57982443 40 10 C39.34 10.99 38.68 11.98 38 13 C35.56982422 13.34057617 35.56982422 13.34057617 32.5546875 13.29296875 C31.47832031 13.28330078 30.40195312 13.27363281 29.29296875 13.26367188 C28.16503906 13.23853516 27.03710938 13.21339844 25.875 13.1875 C24.73933594 13.17396484 23.60367188 13.16042969 22.43359375 13.14648438 C19.62219515 13.11104658 16.81103925 13.05723836 14 13 C14 18.94 14 24.88 14 31 C21.92 31 29.84 31 38 31 C38 34.96 38 38.92 38 43 C35.49502996 44.25248502 33.79146726 44.11374406 30.9921875 44.09765625 C30.1038623 44.09515869 29.21553711 44.09266113 28.30029297 44.09008789 C27.16994629 44.08098389 26.03959961 44.07187988 24.875 44.0625 C19.491875 44.0315625 19.491875 44.0315625 14 44 C14 52.91 14 61.82 14 71 C7.21614406 72.93824455 5.36229561 73.20664227 -1 72 C-2.84408622 70.15591378 -2.13739916 67.16101736 -2.14526367 64.69189453 C-2.14862228 64.03332458 -2.1519809 63.37475464 -2.15544128 62.69622803 C-2.1649783 60.50840392 -2.16689588 58.32065613 -2.16796875 56.1328125 C-2.17117985 54.61685148 -2.17454381 53.10089078 -2.17805481 51.58493042 C-2.18405327 48.40215334 -2.18589402 45.21940343 -2.18530273 42.03662109 C-2.18520117 37.95530194 -2.1988443 33.87415698 -2.21607494 29.7928791 C-2.22718721 26.65993447 -2.22922217 23.527032 -2.22869301 20.39406967 C-2.22987464 18.88935624 -2.23430668 17.38464176 -2.24202538 15.87994766 C-2.25180814 13.77547229 -2.24895404 11.67137583 -2.24291992 9.56689453 C-2.24434494 8.36855988 -2.24576996 7.17022522 -2.24723816 5.93557739 C-2 3 -2 3 0 0 Z " fill="#003159" transform="translate(496,88)"/>
<path d="M0 0 C18.15 0 36.3 0 55 0 C55 3.96 55 7.92 55 12 C49.02970315 14.98514842 41.6749948 13 35 13 C35 32.14 35 51.28 35 71 C28.21614406 72.93824455 26.36229561 73.20664227 20 72 C19 71 19 71 18.87974548 68.67784119 C18.8830764 67.13562645 18.8830764 67.13562645 18.88647461 65.56225586 C18.88655014 64.40112778 18.88662567 63.23999969 18.88670349 62.04368591 C18.89186478 60.780168 18.89702606 59.51665009 18.90234375 58.21484375 C18.9037587 56.92888809 18.90517365 55.64293243 18.90663147 54.31800842 C18.91045582 50.89356557 18.92028538 47.46916491 18.93133545 44.04473877 C18.94155136 40.55261811 18.94612947 37.06049066 18.95117188 33.56835938 C18.96190773 26.71222222 18.97898316 19.85611313 19 13 C17.72382812 13.03480469 16.44765625 13.06960937 15.1328125 13.10546875 C13.46355479 13.13360231 11.7942829 13.16090293 10.125 13.1875 C8.86236328 13.22520508 8.86236328 13.22520508 7.57421875 13.26367188 C6.76855469 13.27333984 5.96289062 13.28300781 5.1328125 13.29296875 C4.38918457 13.3086792 3.64555664 13.32438965 2.87939453 13.34057617 C2.25919434 13.22818604 1.63899414 13.1157959 1 13 C-1.70238949 8.94641576 -1.22937614 6.81689896 -1 2 C-0.67 1.34 -0.34 0.68 0 0 Z " fill="#003159" transform="translate(541,88)"/>
<path d="M0 0 C5.09512232 4.98189738 8.06141071 10.45510593 8.3984375 17.55859375 C8.40631305 19.18489553 8.39824923 20.81134534 8.375 22.4375 C8.38660156 23.24509766 8.39820313 24.05269531 8.41015625 24.88476562 C8.37604398 31.94032012 6.78289155 37.27322469 2.875 43.25 C-3.0630652 48.92988845 -8.44806686 50.25166061 -16.625 50.4375 C-22.23525952 50.27480247 -26.20833119 49.91666797 -31 47 C-31.886875 46.484375 -32.77375 45.96875 -33.6875 45.4375 C-40.12265308 38.65450081 -40.56368618 30.47840596 -40.47680664 21.55541992 C-40.25856424 15.67771305 -39.30120022 10.96905399 -36 6 C-35.443125 5.071875 -34.88625 4.14375 -34.3125 3.1875 C-25.47076664 -5.17630183 -10.43566145 -5.79758969 0 0 Z M-25.75 9.6875 C-29.81981418 17.21665623 -29.28906096 24.75000985 -28 33 C-26.66127549 37.08663271 -25.77275225 38.44289954 -22.3125 40.9375 C-18.15290314 42.27171032 -15.16994851 42.23203024 -11 41 C-7.15769404 38.95077015 -5.68262533 36.77873525 -4.1875 32.8125 C-1.88913724 24.7879306 -2.4881034 17.58630477 -6 10 C-8.38581187 6.46546389 -9.67211244 6.07932764 -13.875 5.0625 C-18.81726156 4.6759544 -22.18384936 6.24871189 -25.75 9.6875 Z " fill="#003159" transform="translate(965,111)"/>
<path d="M0 0 C4.95 0 9.9 0 15 0 C16.21022639 2.42045277 16.12687458 3.95439348 16.12939453 6.65820312 C16.13254669 7.62681274 16.13569885 8.59542236 16.13894653 9.59338379 C16.1369223 10.64537964 16.13489807 11.69737549 16.1328125 12.78125 C16.13424759 14.40613342 16.13424759 14.40613342 16.13571167 16.06384277 C16.13639352 18.3638515 16.13453893 20.66386214 16.13037109 22.96386719 C16.12506421 26.45772737 16.1302944 29.95145656 16.13671875 33.4453125 C16.13605716 35.68229195 16.13477433 37.91927131 16.1328125 40.15625 C16.13483673 41.192052 16.13686096 42.227854 16.13894653 43.29504395 C16.07405982 63.75280783 16.07405982 63.75280783 10 70 C5.37643562 72.91732861 1.79553557 73.38310818 -3.625 73.3125 C-4.91664063 73.30863281 -6.20828125 73.30476563 -7.5390625 73.30078125 C-11 73 -11 73 -15 71 C-15 66.71 -15 62.42 -15 58 C-11.04 58 -7.08 58 -3 58 C-1.06811493 54.13622986 -0.73898311 52.71412835 -0.68115234 48.58886719 C-0.66128265 47.50804871 -0.64141296 46.42723022 -0.62094116 45.31365967 C-0.60938995 44.15312073 -0.59783875 42.99258179 -0.5859375 41.796875 C-0.56657135 40.60394836 -0.5472052 39.41102173 -0.5272522 38.1819458 C-0.46746733 34.37136996 -0.42107473 30.5607639 -0.375 26.75 C-0.33681928 24.16665348 -0.2977675 21.58331968 -0.2578125 19 C-0.16176642 12.66676993 -0.0777308 6.33348027 0 0 Z " fill="#003159" transform="translate(759,88)"/>
<path d="M0 0 C1.27875 0.00257812 2.5575 0.00515625 3.875 0.0078125 C5.15375 0.00523438 6.4325 0.00265625 7.75 0 C10.875 0.1328125 10.875 0.1328125 11.875 1.1328125 C11.96929342 3.31086969 11.99242538 5.4920253 11.98852539 7.67211914 C11.98867142 8.35501511 11.98881744 9.03791107 11.9889679 9.74150085 C11.98826876 12.00868864 11.9804764 14.27579524 11.97265625 16.54296875 C11.97079207 18.11095637 11.96936817 19.67894457 11.96836853 21.24693298 C11.96454334 25.38157753 11.95471306 29.51618716 11.94366455 33.65081787 C11.93345044 37.86681648 11.92887091 42.08282072 11.92382812 46.29882812 C11.91309079 54.57683897 11.89601436 62.8548214 11.875 71.1328125 C6.09719811 72.85621602 2.72099293 73.2415353 -3.125 72.1328125 C-4.99485821 70.26295429 -4.25279348 67.10133629 -4.25439453 64.609375 C-4.25614685 63.92808533 -4.25789917 63.24679565 -4.25970459 62.54486084 C-4.26412242 60.28248583 -4.26118538 58.02018837 -4.2578125 55.7578125 C-4.25848556 54.1922199 -4.2594556 52.6266274 -4.26071167 51.06103516 C-4.26218855 47.77570605 -4.26003441 44.49040408 -4.25537109 41.20507812 C-4.2496738 36.98460734 -4.25295286 32.76420014 -4.25894356 28.54373169 C-4.26254944 25.30964678 -4.26141046 22.07557705 -4.25881577 18.8414917 C-4.25814657 17.28489169 -4.25897466 15.72829032 -4.26129532 14.17169189 C-4.2638223 11.99984054 -4.25998065 9.82809354 -4.25439453 7.65625 C-4.25359894 6.41794434 -4.25280334 5.17963867 -4.25198364 3.90380859 C-4.07210075 -0.02153779 -3.9787135 0.16909532 0 0 Z " fill="#003159" transform="translate(468.125,87.8671875)"/>
<path d="M0 0 C2.75 1.625 2.75 1.625 3.75 3.625 C3.79022391 5.9579866 3.79320247 8.29206666 3.75 10.625 C2.1875 11.3125 2.1875 11.3125 -0.25 11.625 C-1.93998542 10.84500673 -3.62972695 10.06446076 -5.31640625 9.27734375 C-8.93035706 8.05809166 -11.56588209 8.71906937 -15.25 9.625 C-18.66043475 12.13795192 -19.94544408 14.65581924 -21.25 18.625 C-21.60274329 22.00314898 -21.60274329 22.00314898 -21.5625 25.5625 C-21.57925781 26.74714844 -21.59601562 27.93179688 -21.61328125 29.15234375 C-21.21286578 32.97997121 -20.2580142 35.36078734 -18.25 38.625 C-14.79126727 41.11850499 -12.28960465 41.85628706 -8.125 41.4375 C-4.97606354 40.77723913 -3.00558059 40.10120389 -0.25 38.625 C1.07 38.625 2.39 38.625 3.75 38.625 C4.27346332 43.85963318 4.27346332 43.85963318 3.75 46.625 C-2.89816145 52.38673992 -9.84764896 52.18312718 -18.25 51.625 C-24.4934892 50.23877076 -28.4745993 46.22469388 -32 41.0625 C-35.94594606 33.36790518 -35.50090705 21.85977408 -33.53125 13.6171875 C-30.76349666 7.03261303 -26.15736141 2.3698262 -19.69140625 -0.6484375 C-13.44094044 -2.50857612 -6.08276021 -2.44564586 0 0 Z " fill="#003159" transform="translate(917.25,109.375)"/>
<path d="M0 0 C0.9583374 0.00523682 1.9166748 0.01047363 2.90405273 0.01586914 C3.83548096 0.0183667 4.76690918 0.02086426 5.7265625 0.0234375 C7.51404907 0.03709351 7.51404907 0.03709351 9.33764648 0.05102539 C13.11202148 0.07165039 16.88639648 0.09227539 20.77514648 0.11352539 C20.77514648 10.34352539 20.77514648 20.57352539 20.77514648 31.11352539 C17.00077148 31.13415039 13.22639648 31.15477539 9.33764648 31.17602539 C8.14598877 31.18512939 6.95433105 31.1942334 5.7265625 31.20361328 C4.32942017 31.20735962 4.32942017 31.20735962 2.90405273 31.21118164 C1.94571533 31.21641846 0.98737793 31.22165527 0 31.22705078 C-2.22485352 31.11352539 -2.22485352 31.11352539 -3.22485352 30.11352539 C-3.32488641 27.97999365 -3.35566399 25.84314997 -3.35766602 23.70727539 C-3.35895508 22.40661133 -3.36024414 21.10594727 -3.36157227 19.76586914 C-3.35947754 19.08508301 -3.35738281 18.40429688 -3.35522461 17.70288086 C-3.34987592 15.62224024 -3.35517032 13.5418155 -3.36157227 11.46118164 C-3.3602832 10.16051758 -3.35899414 8.85985352 -3.35766602 7.51977539 C-3.35653809 6.31643555 -3.35541016 5.1130957 -3.35424805 3.87329102 C-3.18025316 0.16227562 -3.18025316 0.16227562 0 0 Z " fill="#1CD714" transform="translate(159.224853515625,124.886474609375)"/>
<path d="M0 0 C7.59 0 15.18 0 23 0 C23.0229132 4.25421714 23.04283889 8.50822157 23.05493164 12.76245117 C23.05997101 14.21070073 23.06680253 15.65894517 23.07543945 17.10717773 C23.08752247 19.18474588 23.09323211 21.26224697 23.09765625 23.33984375 C23.10551147 25.21724243 23.10551147 25.21724243 23.11352539 27.13256836 C23 30 23 30 22 31 C20.36527118 31.08700342 18.72685945 31.10701063 17.08984375 31.09765625 C16.199021 31.09515869 15.30819824 31.09266113 14.39038086 31.09008789 C13.25093018 31.08098389 12.11147949 31.07187988 10.9375 31.0625 C7.328125 31.041875 3.71875 31.02125 0 31 C0 20.77 0 10.54 0 0 Z " fill="#1DD812" transform="translate(184,125)"/>
<path d="M0 0 C0 8.91 0 17.82 0 27 C-7.59 27 -15.18 27 -23 27 C-20.41889128 15.38501075 -16.61262994 8.07957205 -7 1 C-5 0 -5 0 0 0 Z " fill="#1CD615" transform="translate(180,94)"/>
<path d="M0 0 C7.28256876 1.21376146 11.24347954 3.40103733 15.73828125 9.26953125 C19.50727174 15.20826316 20.86250253 19.87500844 23 27 C15.41 27 7.82 27 0 27 C0 18.09 0 9.18 0 0 Z " fill="#1CD714" transform="translate(184,94)"/>
<path d="M0 0 C1.59134766 -0.04253906 1.59134766 -0.04253906 3.21484375 -0.0859375 C6.0625 0.375 6.0625 0.375 7.91796875 2.1171875 C9.8074384 5.84453718 9.60217178 9.29747985 9.0625 13.375 C7.9375 15.875 7.9375 15.875 6.0625 17.375 C1.29824308 18.89089993 -2.38746864 18.38751387 -6.9375 16.375 C-9.6398777 11.64583902 -8.96496666 7.5123333 -7.9375 2.375 C-5.25290608 -0.30959392 -3.74009802 0.04533452 0 0 Z " fill="#003159" transform="translate(864.9375,142.625)"/>
<path d="M0 0 C0.33 0 0.66 0 1 0 C1.27951153 8.15405706 1.49196725 16.30607684 1.62174606 24.46375751 C1.6840759 28.25304513 1.76840596 32.03902989 1.90527344 35.82641602 C2.03682624 39.49016725 2.10763475 43.15076948 2.13852692 46.81670189 C2.16050115 48.20644908 2.20341951 49.59604613 2.26876068 50.98443031 C2.54741261 57.15759136 2.66081461 62.52939158 -1.64587402 67.27597046 C-4.57414444 70.11196567 -7.74809229 72.54785682 -11 75 C-12.02298035 75.97647898 -13.03751089 76.96384619 -14 78 C-14.66 77.67 -15.32 77.34 -16 77 C-14.93386475 76.2877124 -13.86772949 75.5754248 -12.76928711 74.84155273 C-6.96898145 70.42278037 -1.99800243 65.90623558 -0.14141846 58.63946533 C0.98326342 49.86537918 0.76153483 41.05204724 0.49353027 32.22918701 C0.39938865 28.58873672 0.3922041 24.94812459 0.37695312 21.30664062 C0.33475379 14.20201012 0.19852537 7.10212853 0 0 Z " fill="#18D324" transform="translate(117,14)"/>
<path d="M0 0 C0.99 0.33 1.98 0.66 3 1 C-2.33333333 6.33333333 -7.66666667 11.66666667 -13 17 C-13.66 16.67 -14.32 16.34 -15 16 C-14.25234375 15.26394531 -13.5046875 14.52789062 -12.734375 13.76953125 C-11.73944821 12.78399056 -10.74466412 11.79830579 -9.75 10.8125 C-9.25886719 10.32974609 -8.76773438 9.84699219 -8.26171875 9.34960938 C-5.27813023 6.38591145 -2.56677663 3.342921 0 0 Z " fill="#17D02D" transform="translate(180,13)"/>
<path d="M0 0 C0.33 0.99 0.66 1.98 1 3 C2.65 3 4.3 3 6 3 C2.71195019 5.91227269 0.40114397 7.49701212 -4 8 C-2.87548273 5.0280615 -1.77706209 2.66559313 0 0 Z " fill="#17CF2D" transform="translate(24,178)"/>
<path d="M0 0 C0.99 0.33 1.98 0.66 3 1 C0.69 2.65 -1.62 4.3 -4 6 C-3 2 -3 2 0 0 Z " fill="#18D227" transform="translate(72,146)"/>
<path d="M0 0 C0.99 0.33 1.98 0.66 3 1 C0.69 2.65 -1.62 4.3 -4 6 C-3 2 -3 2 0 0 Z " fill="#19D323" transform="translate(95,128)"/>
</svg>
