<svg xmlns="http://www.w3.org/2000/svg" width="22.737" height="22.714" xmlns:v="https://vecta.io/nano"><path d="M.335 13.506L11.103 1.874l6.22-.956 4.326 4.584v5.732l-12.4 11.242z" fill="#ffc400"/><path d="M21.8.16l-2.377 2.372-1.072-1.071C17.775.884 16.97.593 16.158.67l-3.819.346a2.77 2.77 0 0 0-1.692.791L.8 11.64c-1.072 1.072-1.072 2.81 0 3.882l6.4 6.39a2.76 2.76 0 0 0 3.891 0l9.837-9.833a2.72 2.72 0 0 0 .791-1.691l.346-3.816a2.75 2.75 0 0 0-.791-2.191L20.2 3.311 22.574.939a.55.55 0 0 0-.016-.764.55.55 0 0 0-.764-.016zm-1.3 5c.346.345.522.825.478 1.312l-.346 3.816c-.034.384-.204.744-.478 1.016l-9.848 9.838a1.65 1.65 0 0 1-2.33 0l-6.4-6.391c-.309-.309-.482-.727-.482-1.164s.173-.855.482-1.164l9.842-9.839a1.67 1.67 0 0 1 1.017-.478l3.819-.346a1.37 1.37 0 0 1 .148-.005 1.65 1.65 0 0 1 1.165.483l1.072 1.071-1.909 1.907a2.3 2.3 0 1 0 .775.78l1.913-1.911zm-4.105 2.862a1.19 1.19 0 0 1-1.654.033 1.19 1.19 0 0 1-.093-1.652 1.19 1.19 0 0 1 1.647-.154.39.39 0 0 0 .088.11l.11.088c.372.474.33 1.151-.098 1.575zm-8.453 2.41a.55.55 0 0 0-.761.013.55.55 0 0 0-.014.761l4.352 4.348a.54.54 0 0 0 .39.159c.146-.001.285-.058.39-.159s.161-.242.161-.387-.058-.285-.161-.387zM6.003 12.37a.55.55 0 0 0-.761.013.55.55 0 0 0-.014.761l4.352 4.348a.54.54 0 0 0 .39.159.56.56 0 0 0 .39-.159c.103-.102.161-.242.161-.387s-.058-.285-.161-.387zm0 0" fill="#002f57"/></svg>