<svg xmlns="http://www.w3.org/2000/svg" xmlns:xlink="http://www.w3.org/1999/xlink" width="662" height="124.002" viewBox="0 0 662 124.002">
  <defs>
    <filter id="Exclusion_4" x="0" y="0" width="662" height="124.002" filterUnits="userSpaceOnUse">
      <feOffset dy="-3" input="SourceAlpha"/>
      <feGaussianBlur stdDeviation="10" result="blur"/>
      <feFlood flood-opacity="0.122"/>
      <feComposite operator="in" in2="blur"/>
      <feComposite in="SourceGraphic"/>
    </filter>
  </defs>
  <g transform="matrix(1, 0, 0, 1, 0, 0)" filter="url(#Exclusion_4)">
    <path id="Exclusion_4-2" data-name="Exclusion 4" d="M9625-378H9023v-64h252.153l-.708.007h2.082l-.564-.005,30.336,0H9625v64Zm-348.472-63.994h0c4.479.05,8.058.476,10.956,2.388,2.7,1.781,4.86,4.77,7.459,10.317a37.229,37.229,0,0,0,12.7,15.485,30.6,30.6,0,0,0,17.308,5.483,29.372,29.372,0,0,0,7.938-1.1,31.3,31.3,0,0,0,7.729-3.37,37.123,37.123,0,0,0,8.408-7.191,36.606,36.606,0,0,0,5.875-9.31c2.861-6.11,4.886-8.991,7.47-10.631,2.739-1.739,6.238-2.071,11.738-2.075h-97.58Z" transform="translate(-8993 475)" fill="#f8f8f8"/>
  </g>
</svg>
